<?xml version="1.0" encoding="utf-8"?>
<!-- Generator: Adobe Illustrator 16.0.0, SVG Export Plug-In . SVG Version: 6.00 Build 0)  -->
<!-- <!DOCTYPE svg PUBLIC "-//W3C//DTD SVG 1.1//EN" "http://www.w3.org/Graphics/SVG/1.1/DTD/svg11.dtd"> -->
<svg version="1.1" id="Layer_1" xmlns="http://www.w3.org/2000/svg" xmlns:xlink="http://www.w3.org/1999/xlink" x="0px" y="0px"
	 width="505.006px" height="505.003px" viewBox="-0.003 0.914 505.006 505.003"
	 enable-background="new -0.003 0.914 505.006 505.003" xml:space="preserve">
<g>
	<path fill="#00ACEA" d="M459.083,253.416c0-9.295,6.563-17.3,15.679-19.113c9.116-1.817,18.248,3.061,21.809,11.646
		c3.56,8.586,0.553,18.494-7.171,23.66c-7.729,5.166-18.03,4.152-24.604-2.418C461.135,263.543,459.079,258.582,459.083,253.416z"/>
	<path fill="#00ACEA" d="M454.712,155.762c-0.004-9.295,6.563-17.296,15.679-19.114c9.116-1.817,18.248,3.061,21.805,11.651
		c3.56,8.586,0.558,18.49-7.171,23.656s-18.029,4.156-24.604-2.417C456.764,165.888,454.708,160.932,454.712,155.762z"/>
	<path fill="#00ACEA" d="M454.712,351.066c-0.004-9.295,6.563-17.297,15.679-19.113s18.248,3.061,21.805,11.65
		c3.56,8.586,0.558,18.49-7.171,23.656c-7.729,5.167-18.029,4.156-24.604-2.417C456.764,361.193,454.708,356.237,454.712,351.066z"
		/>
	<path fill="#00EFD1" d="M386.082,301.399v55.152c0,16.54-13.409,29.945-29.945,29.945H149.861
		c-16.536,0-29.945-13.405-29.945-29.945V150.281c0-16.54,13.409-29.945,29.945-29.945h206.275
		c16.536,0,29.945,13.405,29.945,29.945V301.399z M337.171,337.586v-168.34H168.827v168.34H337.171z"/>
	<path fill="#00ACEA" d="M350.152,51.202c-9.296,0.004-17.301-6.559-19.113-15.679c-1.817-9.116,3.061-18.244,11.646-21.804
		c8.59-3.56,18.494-0.558,23.66,7.17c5.166,7.729,4.152,18.03-2.418,24.604C360.278,49.155,355.318,51.206,350.152,51.202z"/>
	<path fill="#00ACEA" d="M350.152,455.627c9.296,0,17.301,6.563,19.114,15.679c1.816,9.116-3.062,18.248-11.647,21.808
		c-8.59,3.56-18.493,0.558-23.66-7.171c-5.166-7.728-4.152-18.029,2.418-24.604C340.026,457.678,344.986,455.623,350.152,455.627z"
		/>
	<path fill="#00ACEA" d="M337.171,169.246v168.34H168.827v-168.34H337.171z"/>
	<path fill="#00ACEA" d="M252.498,46.831c-9.296,0.004-17.297-6.563-19.114-15.679c-1.813-9.116,3.061-18.244,11.651-21.804
		c8.586-3.56,18.494-0.557,23.656,7.171c5.166,7.728,4.156,18.03-2.418,24.604C262.628,44.784,257.668,46.839,252.498,46.831z"/>
	<path fill="#00ACEA" d="M252.498,460.002c9.299-0.004,17.301,6.563,19.117,15.679c1.813,9.116-3.061,18.244-11.65,21.804
		c-8.586,3.56-18.494,0.558-23.656-7.171c-5.167-7.728-4.156-18.029,2.417-24.604C242.372,462.049,247.332,459.994,252.498,460.002z
		"/>
	<g>
		<path fill="#00ACEA" d="M154.847,51.202c-9.295,0.004-17.3-6.559-19.113-15.679c-1.817-9.116,3.061-18.244,11.646-21.804
			c8.59-3.56,18.494-0.558,23.66,7.17c5.167,7.729,4.153,18.03-2.417,24.604C164.974,49.155,160.014,51.206,154.847,51.202z"/>
		<path fill="#00ACEA" d="M154.847,455.627c9.296,0,17.301,6.563,19.114,15.679c1.817,9.116-3.061,18.248-11.646,21.808
			c-8.59,3.56-18.494,0.558-23.66-7.171c-5.167-7.728-4.153-18.029,2.417-24.604C144.721,457.678,149.681,455.623,154.847,455.627z"
			/>
		<path fill="#00ACEA" d="M50.288,155.762c0.004,9.296-6.563,17.301-15.679,19.118c-9.116,1.813-18.248-3.061-21.804-11.651
			c-3.56-8.586-0.558-18.494,7.171-23.66c7.728-5.162,18.029-4.152,24.604,2.422C48.236,145.64,50.292,150.596,50.288,155.762z"/>
		<path fill="#00ACEA" d="M50.288,351.066c0.004,9.296-6.563,17.301-15.679,19.118c-9.116,1.813-18.248-3.062-21.804-11.651
			c-3.56-8.586-0.558-18.493,7.171-23.66c7.728-5.166,18.029-4.152,24.604,2.422C48.236,340.945,50.292,345.9,50.288,351.066z"/>
		<path fill="#00ACEA" d="M45.917,253.416c0,9.296-6.563,17.297-15.679,19.114S11.99,269.469,8.43,260.883
			c-3.56-8.589-0.558-18.493,7.17-23.66s18.03-4.153,24.604,2.417C43.866,243.29,45.92,248.246,45.917,253.416z"/>
	</g>
	<path fill="#083863" d="M344.295,169.605c0-3.86-3.127-6.987-6.987-6.987H168.687c-3.856,0-6.987,3.127-6.987,6.987v168.621
		c0,3.86,3.131,6.987,6.987,6.987h168.621c3.86,0,6.987-3.127,6.987-6.987V169.605z M330.32,330.24H175.674V176.592H330.32V330.24z"
		/>
	<path fill="#083863" d="M453.036,260.404c1.208,4.437,3.56,8.48,6.819,11.729c8.461,8.449,21.539,10.172,31.898,4.199
		c10.36-5.97,15.43-18.146,12.36-29.704c-3.068-11.557-13.506-19.617-25.461-19.664c-11.959-0.047-22.459,7.931-25.617,19.465
		h-59.83v-35.935h38.548c3.997-0.097,7.233-3.275,7.404-7.268v-40.645h9.503c1.068,4.519,3.438,8.629,6.819,11.814
		c10.333,10.309,27.064,10.297,37.381-0.027c10.317-10.325,10.317-27.056,0-37.381c-10.316-10.325-27.048-10.336-37.381-0.023
		c-3.174,3.275-5.514,7.268-6.819,11.643h-16.907c-3.86,0-6.57,3.295-6.57,7.155v40.758h-31.978v-46.239
		c0-20.365-16.704-36.574-37.069-36.574h-48.738V80.73h42.754c3.86,0,7.155-2.71,7.155-6.57V57.253
		c4.375-1.302,8.367-3.642,11.646-6.82c10.329-10.348,10.313-27.111-0.027-37.447c-10.345-10.337-27.106-10.337-37.451,0
		c-10.345,10.336-10.356,27.099-0.027,37.447h0.078c3.182,3.381,7.287,5.755,11.807,6.82v9.502H300.48
		c-3.949,0.191-7.053,3.451-7.057,7.404v39.546h-33.938V52.878c4.44-1.208,8.484-3.56,11.729-6.815
		c8.454-8.461,10.177-21.539,4.207-31.899c-5.97-10.36-18.146-15.429-29.704-12.364c-11.557,3.068-19.621,13.506-19.667,25.461
		c-0.051,11.958,7.931,22.459,19.461,25.617v60.828h-35.935V74.16c-0.098-3.993-3.271-7.233-7.264-7.404h-40.649v-9.502
		c4.523-1.064,8.629-3.439,11.814-6.82c10.333-10.333,10.353-27.076,0.043-37.432h0.02c-10.36-10.22-27.021-10.169-37.319,0.113
		c-10.298,10.278-10.38,26.939-0.18,37.319c3.279,3.178,7.276,5.518,11.647,6.82V74.16c0,3.86,3.295,6.57,7.159,6.57h40.754v32.976
		h-45.74c-20.365,0-37.073,16.209-37.073,36.574v48.235H79.812v-42.754c0-3.856-2.706-7.155-6.566-7.155H56.339
		c-1.302-4.375-3.642-8.368-6.819-11.643c-7.58-7.626-19.017-9.931-28.956-5.829c-9.943,4.098-16.431,13.792-16.431,24.545
		c0,10.754,6.488,20.447,16.431,24.545c9.939,4.102,21.375,1.797,28.956-5.829c3.38-3.186,5.755-7.292,6.819-11.814h9.499v42.852
		c0.195,3.95,3.451,7.058,7.408,7.058h39.543v33.938H51.964c-1.209-4.438-3.56-8.481-6.82-11.729
		c-8.461-8.449-21.539-10.173-31.899-4.203c-10.36,5.97-15.429,18.146-12.36,29.704c3.064,11.557,13.506,19.62,25.461,19.667
		c11.958,0.047,22.459-7.931,25.618-19.464h60.824v35.934H73.246c-3.997,0.098-7.233,3.271-7.408,7.269v40.645h-9.499
		c-1.068-4.519-3.439-8.628-6.819-11.814c-10.321-10.255-26.998-10.22-37.276,0.078c-10.278,10.302-10.278,26.979,0,37.276
		c10.278,10.301,26.955,10.336,37.276,0.078c3.178-3.275,5.517-7.269,6.819-11.644h16.907c3.86,0,6.566-3.294,6.566-7.159v-40.754
		h32.977v46.239c0,20.361,16.708,36.574,37.073,36.574h47.736v32.977h-42.75c-3.86,0-7.159,2.71-7.159,6.566v16.91
		c-4.371,1.303-8.364,3.642-11.643,6.815c-10.329,10.356-10.317,27.119,0.031,37.456c10.345,10.34,27.107,10.34,37.452,0
		c10.348-10.337,10.36-27.1,0.031-37.456h-0.086c-3.182-3.38-7.288-5.751-11.811-6.815v-9.502h42.855
		c3.95-0.191,7.054-3.451,7.054-7.408v-39.543h33.938v60.824c-4.438,1.213-8.481,3.563-11.729,6.819
		c-8.45,8.462-10.173,21.539-4.204,31.899s18.147,15.429,29.705,12.36c11.557-3.064,19.62-13.503,19.666-25.462
		c0.051-11.954-7.93-22.459-19.464-25.617v-60.824h35.935v39.543c0.102,3.996,3.275,7.232,7.268,7.408h40.646v9.502
		c-4.52,1.064-8.625,3.439-11.811,6.819c-10.333,10.329-10.353,27.076-0.043,37.433h-0.023c10.356,10.243,27.041,10.208,37.35-0.082
		c10.31-10.294,10.376-26.979,0.148-37.351c-3.279-3.178-7.271-5.517-11.646-6.819v-16.91c0-3.856-3.291-6.566-7.155-6.566h-40.758
		v-32.977h46.742c20.361,0,37.069-16.209,37.069-36.574v-48.235h31.978v42.75c0,3.861,2.71,7.159,6.57,7.159h16.907
		c1.302,4.371,3.642,8.368,6.819,11.644c10.341,10.363,27.127,10.375,37.482,0.027c10.356-10.35,10.356-27.135,0-37.483
		c-10.355-10.349-27.142-10.337-37.482,0.023c-3.381,3.187-5.751,7.292-6.819,11.814h-9.503v-42.852
		c-0.19-3.954-3.446-7.058-7.404-7.058h-38.548v-33.938H453.036z M469.736,244.585c4.215-4.208,10.812-4.854,15.764-1.541
		c4.948,3.311,6.87,9.658,4.586,15.161c-2.281,5.497-8.13,8.621-13.971,7.459c-5.842-1.166-10.045-6.294-10.045-12.248
		c0.004-3.314,1.322-6.488,3.662-8.831H469.736z M465.361,146.93c4.215-4.207,10.816-4.854,15.764-1.54
		c4.948,3.31,6.871,9.654,4.59,15.156c-2.281,5.498-8.13,8.625-13.971,7.459c-5.837-1.162-10.045-6.286-10.045-12.244
		C461.695,152.448,463.014,149.27,465.361,146.93z M341.317,40.553c-4.208-4.215-4.854-10.812-1.545-15.764
		c3.311-4.952,9.658-6.874,15.16-4.593s8.629,8.13,7.467,13.971c-1.165,5.841-6.289,10.048-12.247,10.048
		C346.838,44.215,343.66,42.896,341.317,40.553z M243.67,18.507c4.878-4.877,12.792-4.877,17.671,0.004
		c4.881,4.878,4.881,12.793,0,17.671c-4.879,4.881-12.793,4.881-17.671,0.004c-2.371-2.332-3.705-5.518-3.705-8.84
		C239.966,24.025,241.3,20.839,243.67,18.507z M142.354,31.718c0-5.962,4.211-11.097,10.06-12.259
		c5.849-1.166,11.706,1.965,13.99,7.475c2.281,5.509,0.351,11.865-4.608,15.179c-4.96,3.311-11.565,2.66-15.784-1.56
		C143.665,38.214,142.347,35.032,142.354,31.718z M39.635,164.597c-4.211,4.208-10.812,4.854-15.76,1.541
		c-4.948-3.311-6.87-9.654-4.589-15.156c2.281-5.502,8.13-8.625,13.967-7.463c5.841,1.162,10.048,6.289,10.048,12.243
		C43.308,159.08,41.99,162.262,39.635,164.597z M35.268,262.248c-4.211,4.211-10.813,4.858-15.765,1.548
		c-4.952-3.311-6.874-9.658-4.593-15.16c2.277-5.501,8.126-8.629,13.971-7.467c5.841,1.166,10.048,6.29,10.048,12.247
		C38.925,256.727,37.607,259.904,35.268,262.248z M39.635,359.902c-4.885,4.831-12.754,4.808-17.616-0.051
		c-4.858-4.858-4.882-12.73-0.051-17.616c3.15-3.186,7.767-4.441,12.095-3.291c4.332,1.15,7.712,4.534,8.867,8.862
		C44.08,352.139,42.825,356.752,39.635,359.902z M163.683,483.946c-4.882,4.882-12.793,4.886-17.675,0.004
		c-4.881-4.882-4.881-12.793,0-17.675c4.882-4.882,12.793-4.878,17.675,0.004C168.553,471.161,168.553,479.064,163.683,483.946z
		 M261.33,488.321c-4.879,4.882-12.793,4.882-17.671,0c-4.882-4.882-4.882-12.793,0-17.671c4.878-4.882,12.792-4.882,17.671-0.004
		c2.37,2.332,3.703,5.518,3.703,8.839C265.033,482.808,263.7,485.993,261.33,488.321z M362.646,475.111
		c0.004,5.057-3.041,9.611-7.709,11.545c-4.671,1.934-10.044,0.865-13.615-2.71c-4.001-3.996-4.815-10.185-1.989-15.082
		c2.827-4.894,8.594-7.283,14.053-5.821C358.848,464.509,362.646,469.457,362.646,475.111z M379.231,357.191
		c0,12.68-10.278,22.958-22.958,22.958H149.721c-12.676,0-22.958-10.278-22.958-22.958V150.64c0-12.68,10.282-22.958,22.958-22.958
		h206.552c12.68,0,22.958,10.278,22.958,22.958V357.191z M465.361,342.235c4.215-4.207,10.816-4.854,15.764-1.54
		c4.948,3.311,6.871,9.654,4.59,15.156c-2.281,5.498-8.13,8.625-13.971,7.459c-5.837-1.162-10.045-6.285-10.045-12.244
		C461.695,347.752,463.014,344.574,465.361,342.235z"/>
</g>
</svg>
