<?xml version="1.0" encoding="utf-8"?>
<!-- Generator: Adobe Illustrator 16.0.0, SVG Export Plug-In . SVG Version: 6.00 Build 0)  -->
<!DOCTYPE svg PUBLIC "-//W3C//DTD SVG 1.1//EN" "http://www.w3.org/Graphics/SVG/1.1/DTD/svg11.dtd">
<svg version="1.1" id="Capa_1" xmlns="http://www.w3.org/2000/svg" xmlns:xlink="http://www.w3.org/1999/xlink" x="0px" y="0px"
	 width="504.002px" height="504.002px" viewBox="4 4 504.002 504.002" enable-background="new 4 4 504.002 504.002"
	 xml:space="preserve">
<g>
	<polygon fill="#00ACEA" points="256,11 177,109.487 180.5,116.5 225,117 225,489.5 234.5,505 273,505 287,487.5 287,119.5 
		331,119.5 336,103.5 	"/>
	<polygon fill="#00EED1" points="108.372,263.213 27.905,362.498 30.951,368.592 76.292,370.742 76.65,442.426 19.122,442.426 
		9.266,450.848 9.266,492.963 21.273,502.461 112.852,502.461 138.838,478.446 139.912,368.766 182.207,369.124 190.809,355.503 	
		"/>
	<polygon fill="#00EED1" points="404.661,183.213 485.129,282.498 482.082,288.592 436.74,290.742 436.383,442.426 493.911,442.426 
		503.768,450.848 503.768,492.963 491.76,502.461 400.182,502.461 374.195,478.446 373.121,288.766 330.826,289.124 
		322.225,275.503 	"/>
	<g>
		<path fill="#083863" d="M340.634,113.665c2.468-5.566,1.505-12.088-2.457-16.618L267.595,9.571C264.734,6.031,260.532,4,256.058,4
			l-0.142,0.001c-4.542,0.033-8.777,2.112-11.612,5.697l-70.852,87.814c-3.793,4.696-4.521,11.018-1.901,16.5
			c2.552,5.339,7.72,8.655,13.486,8.654h30.964c2.206,0,4,1.794,4,4L220,487.002c0,11.579,9.42,21,21,21h30.001
			c11.579,0,21-9.421,21-21V126.667c0-2.206,1.794-4,4-4h30.951C332.928,122.667,338.17,119.218,340.634,113.665z M280.001,116.667
			v370.335c0,4.963-4.037,9-9,9H241c-4.962,0-9-4.037-9-9l0.001-370.336c0-3.309-2.691-6-6-6h-39.375
			c-1.531,0-2.948-0.893-3.608-2.274c-0.661-1.382-0.467-3.045,0.496-4.237l69.374-85.985c0.763-0.946,1.898-1.488,3.113-1.488
			c1.215,0,2.35,0.542,3.113,1.488l69.375,85.986c0.962,1.192,1.156,2.855,0.495,4.237c-0.66,1.382-2.076,2.274-3.608,2.274h-39.374
			C282.692,110.667,280.001,113.358,280.001,116.667z"/>
		<path fill="#083863" d="M487.002,436.001h-43c-2.206,0-4-1.794-4-4V299.223c0-2.206,1.794-4,4-4h30.951
			c5.977,0,11.218-3.449,13.68-9.002c2.47-5.565,1.506-12.086-2.449-16.607l-70.587-87.484c-2.861-3.541-7.083-5.572-11.59-5.572
			l-0.104,0c-4.534,0.033-8.764,2.112-11.598,5.696l-70.853,87.816c-3.793,4.697-4.521,11.019-1.9,16.499
			c2.553,5.339,7.72,8.655,13.486,8.655h30.964c2.206,0,4,1.794,4,4v172.777c0,19.851,16.149,36,36,36h83c11.579,0,21-9.421,21-21
			v-30C508.002,445.422,498.581,436.001,487.002,436.001z M374.002,283.223h-39.375c-1.532,0-2.948-0.893-3.608-2.275
			c-0.661-1.381-0.467-3.044,0.495-4.236l69.375-85.984c0.764-0.946,1.898-1.488,3.113-1.488s2.35,0.542,3.113,1.488l69.374,85.984
			c0.962,1.192,1.156,2.855,0.495,4.236c-0.66,1.383-2.076,2.275-3.608,2.275h-39.373c-3.309,0-6,2.691-6,6v152.778
			c0,3.309,2.691,6,6,6h53c4.963,0,9,4.037,9,9v30.001c-0.002,4.963-4.04,9-9.001,9h-83c-13.233,0-24-10.767-24-24V289.223
			C380.002,285.914,377.311,283.223,374.002,283.223z"/>
		<path fill="#083863" d="M119.734,262.303c-2.859-3.616-7.1-5.709-11.641-5.742h-0.102c-4.502,0-8.726,2.033-11.591,5.579
			l-70.474,87.349l-0.104,0.124c-3.958,4.525-4.921,11.046-2.454,16.612c2.462,5.553,7.704,9.002,13.68,9.002H68
			c2.206,0,4,1.794,4,4v52.775c0,2.206-1.794,4-4,4H25c-11.58,0-21,9.421-21,21v30c0,11.579,9.42,21,21,21h83
			c19.851,0,36-16.149,36-36v-92.775c0-2.206,1.794-4,4-4h30.947c5.777,0,10.951-3.316,13.503-8.654
			c2.621-5.482,1.894-11.802-1.896-16.491L119.734,262.303z M108.001,496.001H25c-4.962,0-9-4.037-9-9v-30c0-4.963,4.038-9,9-9h53
			c3.309,0,6-2.691,6-6v-72.774c0-3.309-2.691-6-6-6H38.626c-1.532,0-2.948-0.893-3.609-2.275c-0.661-1.381-0.466-3.044,0.496-4.236
			l69.375-85.986c0.763-0.946,1.897-1.488,3.113-1.488s2.351,0.542,3.113,1.488l69.375,85.986c0.961,1.192,1.156,2.855,0.496,4.236
			c-0.661,1.383-2.077,2.275-3.609,2.275h-39.375c-3.309,0-6,2.691-6,6v102.774C132.001,485.234,121.234,496.001,108.001,496.001z"
			/>
	</g>
</g>
</svg>
