<?xml version="1.0" encoding="utf-8"?>
<!-- Generator: Adobe Illustrator 16.0.0, SVG Export Plug-In . SVG Version: 6.00 Build 0)  -->
<!DOCTYPE svg PUBLIC "-//W3C//DTD SVG 1.1//EN" "http://www.w3.org/Graphics/SVG/1.1/DTD/svg11.dtd">
<svg version="1.1" id="Layer_1" xmlns="http://www.w3.org/2000/svg" xmlns:xlink="http://www.w3.org/1999/xlink" x="0px" y="0px"
	 width="389.575px" height="361.279px" viewBox="26.092 2.5 389.575 361.279" enable-background="new 26.092 2.5 389.575 361.279"
	 xml:space="preserve">
<g>
	<path fill="#00ACEA" d="M320.007,194.753c0,38.609-24.116,71.709-58.171,86.783v19.344h-81.913v-19.702
		c-34.546-14.754-58.312-48.002-58.171-86.764c0.18-49.659,41.323-91.691,92.901-94.725
		C272.207,96.305,320.007,140.185,320.007,194.753z"/>
	<path fill="#00EED1" d="M261.836,300.88v37.443c-0.004,11.022-8.941,19.96-19.963,19.964h-41.986
		c-11.023-0.004-19.959-8.941-19.963-19.964V300.88H261.836z"/>
	<g>
		<path fill="#083863" d="M173.057,284.054l1.412,0.683v53.587c0.003,14.015,11.408,25.435,25.422,25.456h41.978
			c14.014-0.021,25.417-11.441,25.421-25.457v-53.276l1.391-0.688c35.038-17.348,56.804-51.682,56.804-89.604
			c0-27.306-11.159-52.866-31.422-71.972c-19.925-18.551-45.901-28.773-73.133-28.773c-2.188,0-4.406,0.068-6.592,0.202
			c-26.285,1.516-50.901,12.708-69.323,31.516c-18.434,18.806-28.637,43.192-28.732,68.666
			C116.141,232.708,137.896,267.064,173.057,284.054z M256.319,338.323c0.005,7.968-6.474,14.467-14.441,14.485h-41.992
			c-7.973-0.019-14.452-6.518-14.447-14.487v-32.436h70.879V338.323z M152.844,133.405c16.515-16.856,38.581-26.886,62.133-28.243
			c1.912-0.111,3.847-0.167,5.75-0.167l0.338,0c24.371,0,47.619,9.147,65.458,25.758c18.059,17.026,27.997,39.752,27.997,64.001
			c0,34.908-21.559,67.002-54.922,81.766c-1.988,0.879-3.275,2.85-3.28,5.022v13.373H185.44v-13.737
			c-0.005-2.199-1.317-4.183-3.343-5.046c-33.448-14.281-54.98-46.349-54.856-81.695
			C127.326,171.838,136.418,150.164,152.844,133.405z"/>
		<path fill="#083863" d="M220.879,62.163c3.024,0,5.485-2.461,5.485-5.485V7.985c0-3.024-2.461-5.485-5.485-5.485
			s-5.485,2.461-5.485,5.485v48.692C215.394,59.702,217.855,62.163,220.879,62.163z"/>
		<path fill="#083863" d="M31.577,195.088h50.665c3.024,0,5.485-2.461,5.485-5.485s-2.461-5.485-5.485-5.485H31.577
			c-3.024,0-5.485,2.461-5.485,5.485S28.553,195.088,31.577,195.088z"/>
		<path fill="#083863" d="M354.031,189.603c0,3.024,2.461,5.485,5.485,5.485h50.665c3.024,0,5.485-2.461,5.485-5.485
			s-2.461-5.485-5.485-5.485h-50.665C356.492,184.117,354.031,186.578,354.031,189.603z"/>
		<path fill="#083863" d="M119.407,99.6c1.025,0.974,2.368,1.511,3.779,1.511c1.519,0,2.932-0.606,3.978-1.708
			c1.009-1.063,1.544-2.454,1.507-3.918c-0.038-1.464-0.643-2.827-1.705-3.835L90.892,57.371c-1.024-0.973-2.365-1.509-3.777-1.509
			c-1.52,0-2.934,0.606-3.981,1.708c-2.082,2.191-1.993,5.672,0.2,7.757L119.407,99.6z"/>
		<path fill="#083863" d="M318.572,101.111c1.414,0,2.757-0.536,3.78-1.508l36.07-34.276c2.192-2.086,2.283-5.567,0.201-7.758
			c-1.047-1.101-2.46-1.707-3.979-1.707c-1.411,0-2.753,0.536-3.777,1.509l-36.075,34.277c-1.636,1.555-2.151,3.916-1.314,6.014
			C314.315,99.757,316.314,101.111,318.572,101.111z"/>
	</g>
</g>
</svg>
