<?xml version="1.0" encoding="utf-8"?>
<!-- Generator: Adobe Illustrator 16.0.0, SVG Export Plug-In . SVG Version: 6.00 Build 0)  -->
<!DOCTYPE svg PUBLIC "-//W3C//DTD SVG 1.1//EN" "http://www.w3.org/Graphics/SVG/1.1/DTD/svg11.dtd">
<svg version="1.1" id="Capa_1" xmlns="http://www.w3.org/2000/svg" xmlns:xlink="http://www.w3.org/1999/xlink" x="0px" y="0px"
	 width="498px" height="498px" viewBox="7 7 498 498" enable-background="new 7 7 498 498" xml:space="preserve">
<g>
	<polygon fill="#00ACEA" points="123.223,342.603 166.304,387.008 74.84,482.448 47.667,499.018 20.493,485.763 13.202,459.914 	"/>
	<polygon fill="#00ACEA" points="154.374,278.067 188.332,322.719 231.919,357.184 214.406,388.997 180.813,394.299 
		139.041,352.544 116.596,314.766 129.852,298.594 	"/>
	<circle fill="#FFFFFF" cx="318.985" cy="192.483" r="179.945"/>
	<circle fill="#00EED1" cx="297.865" cy="94.33" r="29.708"/>
	<circle fill="#00EED1" cx="395.356" cy="131.375" r="29.708"/>
	<circle fill="#00EED1" cx="420.207" cy="229.613" r="29.708"/>
	<circle fill="#00EED1" cx="365.539" cy="298.84" r="20.772"/>
	<circle fill="#00EED1" cx="291.247" cy="309.692" r="20.772"/>
	<circle fill="#00EED1" cx="218.406" cy="249.008" r="26.075"/>
	<circle fill="#00EED1" cx="214.406" cy="156.989" r="26.075"/>
	<circle fill="#00EED1" cx="312.889" cy="214.928" r="41.098"/>
	<g>
		<path fill="#083863" d="M366.286,272.855c-14.192,0-25.738,11.546-25.738,25.738s11.546,25.738,25.738,25.738
			s25.738-11.546,25.738-25.738S380.479,272.855,366.286,272.855z M366.286,312.507c-7.672,0-13.913-6.241-13.913-13.913
			c0-7.671,6.241-13.912,13.913-13.912s13.913,6.241,13.913,13.912C380.199,306.266,373.958,312.507,366.286,312.507z"/>
		<path fill="#083863" d="M291.247,283.954c-14.192,0-25.738,11.546-25.738,25.738s11.546,25.738,25.738,25.738
			s25.738-11.546,25.738-25.738S305.439,283.954,291.247,283.954z M291.247,323.605c-7.672,0-13.913-6.241-13.913-13.913
			c0-7.671,6.241-13.912,13.913-13.912s13.913,6.241,13.913,13.912C305.16,317.364,298.919,323.605,291.247,323.605z"/>
		<path fill="#083863" d="M420.207,198.02c-17.421,0-31.594,14.173-31.594,31.594c0,17.42,14.173,31.593,31.594,31.593
			s31.594-14.173,31.594-31.593C451.801,212.193,437.628,198.02,420.207,198.02z M420.207,248.145
			c-10.218,0-18.531-8.313-18.531-18.531s8.313-18.531,18.531-18.531s18.531,8.313,18.531,18.531S430.425,248.145,420.207,248.145z"
			/>
		<path fill="#083863" d="M218.406,217.415c-17.421,0-31.594,14.173-31.594,31.594c0,17.42,14.173,31.593,31.594,31.593
			S250,266.429,250,249.009C250,231.588,235.827,217.415,218.406,217.415z M218.406,267.54c-10.218,0-18.531-8.313-18.531-18.531
			c0-10.218,8.313-18.531,18.531-18.531s18.531,8.313,18.531,18.531C236.938,259.227,228.625,267.54,218.406,267.54z"/>
		<path fill="#083863" d="M214.406,188.583c17.421,0,31.594-14.172,31.594-31.593c0-17.421-14.173-31.594-31.594-31.594
			s-31.594,14.173-31.594,31.594C182.813,174.41,196.985,188.583,214.406,188.583z M214.406,138.458
			c10.218,0,18.531,8.313,18.531,18.531s-8.313,18.531-18.531,18.531s-18.531-8.313-18.531-18.531S204.188,138.458,214.406,138.458z
			"/>
		<path fill="#083863" d="M297,132c20.402,0,37-16.598,37-37s-16.598-37-37-37s-37,16.598-37,37S276.598,132,297,132z M297,72
			c12.683,0,23,10.318,23,23s-10.317,23-23,23s-23-10.318-23-23S284.317,72,297,72z"/>
		<path fill="#083863" d="M395.356,168.376c20.402,0,37-16.598,37-37s-16.598-37-37-37s-37,16.598-37,37
			S374.954,168.376,395.356,168.376z M395.356,108.376c12.683,0,23,10.318,23,23s-10.317,23-23,23s-23-10.318-23-23
			S382.674,108.376,395.356,108.376z"/>
		<path fill="#083863" d="M312.178,258.841c26.15,0,47.426-21.275,47.426-47.426s-21.275-47.426-47.426-47.426
			s-47.426,21.275-47.426,47.426S286.027,258.841,312.178,258.841z M312.178,179.54c17.575,0,31.874,14.299,31.874,31.875
			s-14.299,31.875-31.874,31.875s-31.874-14.299-31.874-31.875S294.603,179.54,312.178,179.54z"/>
		<path fill="#083863" d="M449.937,62.064C414.428,26.556,367.216,7,317,7C213.336,7,129,91.336,129,195
			c0,24.869,4.738,48.978,14.082,71.658l1.778,4.314l-24.436,24.436c-11.35,11.349-14.329,28.729-7.413,43.249l2.126,4.464
			L18.109,440.15C10.945,447.314,7,456.857,7,467.021c0,10.164,3.945,19.707,11.109,26.871C25.273,501.055,34.815,505,44.979,505
			c10.164,0,19.707-3.945,26.871-11.108l97.03-97.03l4.464,2.127c5.068,2.415,10.736,3.691,16.391,3.691
			c10.159,0,19.698-3.943,26.858-11.104l24.435-24.437l4.316,1.779C268.021,378.263,292.131,383,317,383
			c103.663,0,188-84.337,188-188C505,144.783,485.444,97.572,449.937,62.064z M60.536,482.577
			c-4.151,4.151-9.676,6.438-15.557,6.438s-11.405-2.286-15.556-6.438c-4.15-4.15-6.437-9.675-6.437-15.556
			c0-5.882,2.286-11.406,6.438-15.557l96.658-96.658l31.113,31.112L60.536,482.577z M205.278,380.262
			c-4.151,4.15-9.676,6.437-15.557,6.437c-5.881,0-11.406-2.286-15.556-6.437l-42.426-42.427c-4.149-4.148-6.435-9.673-6.435-15.556
			c0-5.882,2.285-11.407,6.435-15.557l20.534-20.534l4.652,7.513c7.655,12.362,16.786,23.88,27.14,34.234
			c10.355,10.354,21.873,19.485,34.234,27.139l7.514,4.651L205.278,380.262z M317,367c-45.943-0.001-89.136-17.893-121.623-50.379
			S145,240.942,145,195c0-94.841,77.159-172,172-172c45.943,0,89.136,17.891,121.622,50.377
			c32.487,32.487,50.379,75.68,50.379,121.623C489,289.841,411.841,367,317,367z"/>
	</g>
</g>
</svg>
