<?xml version="1.0" encoding="utf-8"?>
<!-- Generator: Adobe Illustrator 16.0.0, SVG Export Plug-In . SVG Version: 6.00 Build 0)  -->
<!DOCTYPE svg PUBLIC "-//W3C//DTD SVG 1.1//EN" "http://www.w3.org/Graphics/SVG/1.1/DTD/svg11.dtd">
<svg version="1.1" id="Layer_1" xmlns="http://www.w3.org/2000/svg" xmlns:xlink="http://www.w3.org/1999/xlink" x="0px" y="0px"
	 width="338.908px" height="323.911px" viewBox="3.604 3.498 338.908 323.911" enable-background="new 3.604 3.498 338.908 323.911"
	 xml:space="preserve">
<g>
	<path fill="#00ACEA" d="M337.557,216.39v54.517H8.565V216.39H337.557z"/>
	<path fill="#00EFD1" d="M8.565,8.388h328.992V216.39H8.565V8.388z"/>
	<path fill="#F4B844" d="M216.668,270.906l14.535,51.845H114.915l14.539-51.845H216.668z"/>
	<g>
		<path fill="#083863" d="M337.446,3.498L8.565,3.5C5.906,3.585,3.713,5.794,3.604,8.528l0.003,262.378
			c0,2.406,2.317,4.518,4.958,4.518h114.948l-12.002,42.99H90.542c-2.48,0-4.498,2.018-4.498,4.497c0,2.48,2.018,4.498,4.498,4.498
			h165.037c2.479,0,4.497-2.018,4.497-4.498c0-2.479-2.018-4.497-4.497-4.497h-20.968l-12.007-42.99h114.952
			c2.64,0,4.955-2.111,4.955-4.518V8.443C342.384,5.777,340.158,3.584,337.446,3.498z M225.266,318.414h-104.41l12.002-42.99h80.402
			L225.266,318.414z M333.516,266.428H12.602v-45.989h320.914V266.428z M333.516,211.443H12.602V12.496h320.914V211.443z"/>
		<path fill="#083863" d="M62.115,142.465h81.891c2.48,0,4.498-2.018,4.498-4.498c0-2.48-2.018-4.498-4.498-4.498H62.115
			c-2.48,0-4.498,2.018-4.498,4.498C57.617,140.447,59.635,142.465,62.115,142.465z"/>
		<path fill="#083863" d="M62.115,175.454h81.891c2.48,0,4.498-2.018,4.498-4.498c0-2.48-2.018-4.498-4.498-4.498H62.115
			c-2.48,0-4.498,2.018-4.498,4.498C57.617,173.436,59.635,175.454,62.115,175.454z"/>
		<path fill="#083863" d="M203.115,142.465h81.891c2.48,0,4.498-2.018,4.498-4.498c0-2.48-2.018-4.498-4.498-4.498h-81.891
			c-2.48,0-4.498,2.018-4.498,4.498C198.617,140.447,200.635,142.465,203.115,142.465z"/>
		<path fill="#083863" d="M203.115,175.454h81.891c2.48,0,4.498-2.018,4.498-4.498c0-2.48-2.018-4.498-4.498-4.498h-81.891
			c-2.48,0-4.498,2.018-4.498,4.498C198.617,173.436,200.635,175.454,203.115,175.454z"/>
	</g>
	<g>
		<path fill="#D6D6D4" d="M114.181,72.89c28.479-35.687,89.285-35.687,117.761,0C203.466,108.577,142.659,108.577,114.181,72.89z"/>
		<path fill="#FFFFFF" stroke="#000000" stroke-miterlimit="10" d="M199.824,72.89c0,14.78-11.98,26.764-26.764,26.764
			c-14.78,0-26.764-11.983-26.764-26.764s11.983-26.764,26.764-26.764C187.844,46.126,199.824,58.109,199.824,72.89z"/>
		<path fill="#083863" d="M118.633,83.331l4.064,3.144c13.604,10.52,29.88,16.29,47.072,16.687l0.135,0.009
			c2.078,0.217,4.203,0.217,6.281,0l0.136-0.009c17.201-0.389,33.489-6.16,47.104-16.687l4.064-3.143c0,0,8.132-6.311,8.132-10.442
			c0-3.658-8.132-10.441-8.132-10.441l-4.064-3.144c-13.604-10.52-29.881-16.29-47.073-16.687l-0.135-0.008
			c-2.078-0.217-4.2-0.217-6.278,0l-0.136,0.008c-17.2,0.389-33.488,6.16-47.105,16.687l-4.064,3.142c0,0-8.133,6.625-8.133,10.443
			C110.5,76.873,118.633,83.331,118.633,83.331z M199.261,57.468l-2.468-4.141l4.503,1.722c9.377,3.588,17.959,9.362,24.818,16.698
			l1.068,1.142l-1.068,1.142c-6.859,7.336-15.441,13.11-24.818,16.698l-4.503,1.722l2.468-4.141
			C204.928,78.799,204.928,66.98,199.261,57.468z M173.061,49.806c12.729,0,23.084,10.355,23.084,23.084
			s-10.355,23.084-23.084,23.084s-23.084-10.355-23.084-23.084S160.332,49.806,173.061,49.806z M120.008,71.748
			c6.857-7.336,15.44-13.11,24.818-16.698l4.501-1.722l-2.466,4.14c-5.665,9.513-5.665,21.332,0,30.844l2.466,4.14l-4.501-1.722
			c-9.378-3.588-17.961-9.362-24.818-16.698l-1.068-1.142L120.008,71.748z"/>
		<path fill="#083863" d="M183.767,72.89c0,5.912-4.794,10.706-10.706,10.706s-10.705-4.793-10.705-10.706
			s4.793-10.706,10.705-10.706S183.767,66.978,183.767,72.89z"/>
	</g>
</g>
</svg>
