<?xml version="1.0" encoding="utf-8"?>
<!-- Generator: Adobe Illustrator 16.0.0, SVG Export Plug-In . SVG Version: 6.00 Build 0)  -->
<!DOCTYPE svg PUBLIC "-//W3C//DTD SVG 1.1//EN" "http://www.w3.org/Graphics/SVG/1.1/DTD/svg11.dtd">
<svg version="1.1" id="Layer_1" xmlns="http://www.w3.org/2000/svg" xmlns:xlink="http://www.w3.org/1999/xlink" x="0px" y="0px"
	 width="418.115px" height="497.556px" viewBox="47 7 418.115 497.556" enable-background="new 47 7 418.115 497.556"
	 xml:space="preserve">
<g>
	<path fill="#00ACEA" d="M373.99,307.3c52.098,6.538,89.03,54.072,82.492,106.17c-6.539,52.098-54.072,89.03-106.17,82.492
		s-89.031-54.072-82.492-106.17c5.965-47.532,46.364-83.201,94.27-83.231C366.068,306.557,370.043,306.805,373.99,307.3z"/>
	<path fill="#00EFD1" d="M373.99,193.9v113.4c-52.067-6.564-99.599,30.323-106.164,82.39c-2.538,20.137,1.438,40.557,11.344,58.271
		l-0.23,0.13H54.9V193.9H373.99z"/>
	<path fill="#083863" d="M212,310.29c-4.418,0-8,3.581-8,8v37.86c0,4.418,3.582,8,8,8s8-3.582,8-8v-37.86
		C220,313.871,216.418,310.29,212,310.29z"/>
	<path fill="#083863" d="M392.072,375.424l-42.961,34.951l-15.978-18.71c-2.846-3.38-7.893-3.812-11.272-0.966
		c-3.379,2.847-3.812,7.894-0.965,11.272c0.023,0.028,0.047,0.056,0.07,0.083l21.05,24.65c2.821,3.303,7.763,3.751,11.133,1.01
		l49.02-39.88c3.427-2.789,3.944-7.828,1.155-11.255c-2.789-3.428-7.828-3.945-11.255-1.156l0,0H392.072z"/>
	<path fill="#083863" d="M382,300.511V193.9c-0.013-4.376-3.571-7.914-7.947-7.9c-0.021,0-0.042,0-0.063,0H339v-53.21
		C339,63.667,283.408,7,215.42,7h-0.97c-33.115-0.008-64.843,13.299-88.044,36.928C102.99,67.564,89.898,99.519,90,132.79V186H54.9
		c-4.324-0.039-7.861,3.435-7.9,7.759c0,0.047,0,0.094,0,0.141v254.19c-0.04,4.329,3.438,7.871,7.768,7.91c0.044,0,0.088,0,0.132,0
		h219.8c30.067,48.279,93.58,63.042,141.859,32.975c48.279-30.068,63.042-93.581,32.974-141.859
		C434.45,322.896,409.995,306.02,382,300.511z M106,132.79c-0.09-29.051,11.335-56.955,31.774-77.6
		C157.977,34.605,185.607,23.005,214.45,23h0.97C274.585,23,323,72.489,323,132.79V186H106V132.79z M63,202h303v96.641
		c-1-0.048-2.605-0.08-3.9-0.08c-56.863-0.032-102.985,46.039-103.017,102.902c-0.007,13.205,2.526,26.289,7.461,38.537H63V202z
		 M362.09,488.57c-48.084-0.164-86.932-39.276-86.769-87.36c0.163-47.854,38.915-86.606,86.769-86.769
		c3.656,0,7.324,0.559,10.9,0.559H373c43.385,6,76.1,42.65,76.1,86.451C449.056,449.505,410.144,488.465,362.09,488.57z"/>
</g>
</svg>
