<?xml version="1.0" encoding="utf-8"?>
<!-- Generator: Adobe Illustrator 16.0.0, SVG Export Plug-In . SVG Version: 6.00 Build 0)  -->
<!DOCTYPE svg PUBLIC "-//W3C//DTD SVG 1.1//EN" "http://www.w3.org/Graphics/SVG/1.1/DTD/svg11.dtd">
<svg version="1.1" id="Capa_1" xmlns="http://www.w3.org/2000/svg" xmlns:xlink="http://www.w3.org/1999/xlink" x="0px" y="0px"
	 width="604.001px" height="587.618px" viewBox="4 102.191 604.001 587.618" enable-background="new 4 102.191 604.001 587.618"
	 xml:space="preserve">
<g>
	<g>
		<path fill="#00EFD1" d="M597.747,202.548l-34.076,141.983c-6.177,26.433-28.385,46.078-55.373,48.984l-301.714,30.525h-5.68
			l-75.959-227.882h2.84L597.747,202.548z"/>
		<g>
			<circle fill="#00ACEA" cx="464.993" cy="629.917" r="49.693"/>
			<circle fill="#00ACEA" cx="195.226" cy="629.917" r="49.693"/>
		</g>
	</g>
	<g>
		<path fill="#083863" d="M195.226,570.025c-33.024,0-59.892,26.867-59.892,59.892s26.867,59.892,59.892,59.892
			c15.998,0,31.039-6.229,42.351-17.542s17.542-26.353,17.541-42.35C255.117,596.893,228.25,570.025,195.226,570.025z
			 M195.226,669.411c-21.778,0-39.495-17.718-39.495-39.495s17.717-39.495,39.495-39.495c10.55,0,20.469,4.108,27.928,11.568
			c7.46,7.46,11.568,17.378,11.567,27.927C234.721,651.693,217.003,669.411,195.226,669.411z"/>
		<path fill="#083863" d="M464.993,570.025c-33.024,0-59.892,26.867-59.892,59.892s26.867,59.892,59.892,59.892
			s59.892-26.867,59.892-59.892S498.018,570.025,464.993,570.025z M464.993,669.411c-21.777,0-39.495-17.718-39.495-39.495
			s17.718-39.495,39.495-39.495c10.55,0,20.468,4.108,27.928,11.568c7.461,7.46,11.568,17.378,11.567,27.927
			C504.488,651.693,486.771,669.411,464.993,669.411z"/>
		<path fill="#083863" d="M597.513,191.638l-464.832-6.426l-13.667-41.761c-8.409-24.381-31.442-40.986-57.294-41.259H14.198
			C8.575,102.191,4,106.766,4,112.389s4.575,10.198,10.198,10.198h47.564c17.114,0.377,32.292,11.445,37.857,27.541l90.657,273.396
			L182.6,441.18c-7.398,19.146-5.141,40.847,6.043,58.063c11.071,16.901,29.744,27.369,49.95,27.995h276.096
			c5.623,0,10.198-4.575,10.198-10.198s-4.575-10.198-10.198-10.198H238.441l-0.09-0.004c-13.356-0.604-25.687-7.651-32.987-18.85
			c-7.113-11.396-8.54-25.089-3.955-37.634l0.102-0.252l6.619-14.892l301.173-31.478c31.05-3.419,56.765-26.156,63.966-56.576
			l34.136-142.94l0.086-0.231c1.02-2.726,0.489-5.791-1.383-8.016C603.854,193.534,600.81,192,597.513,191.638z M553.36,342.636
			c-5.004,22.469-23.849,38.843-46.874,40.668l-298.432,30.848l-68.79-208.586l445.806,6.545L553.36,342.636z"/>
	</g>
</g>
</svg>
