<?xml version="1.0" encoding="utf-8"?>
<!-- Generator: Adobe Illustrator 16.0.0, SVG Export Plug-In . SVG Version: 6.00 Build 0)  -->
<!DOCTYPE svg PUBLIC "-//W3C//DTD SVG 1.1//EN" "http://www.w3.org/Graphics/SVG/1.1/DTD/svg11.dtd">
<svg version="1.1" id="Layer_1" xmlns="http://www.w3.org/2000/svg" xmlns:xlink="http://www.w3.org/1999/xlink" x="0px" y="0px"
	 width="475px" height="477.5px" viewBox="2.501 2.5 475 477.5" enable-background="new 2.501 2.5 475 477.5" xml:space="preserve">
<g>
	<path fill="#E0E0DE" d="M301.603,464l-21.602-72h-80l-21.598,72h-26.402v16h176v-16H301.603z"/>
	<path fill="#D6D6D4" d="M287.2,416l-7.199-24h-80l-7.199,24H287.2z"/>
	<path fill="#00ACEA" d="M408.001,72h40c13.254,0,24,10.746,24,24v248h-464V96c0-13.254,10.746-24,24-24h24"/>
	<path fill="#E0E0DE" d="M8.001,344v24c0,13.254,10.746,24,24,24h416c13.254,0,24-10.746,24-24v-24H8.001z"/>
	<path fill="#00EFD1" d="M344.001,10.34h-264c-13.254,0-24,10.746-24,24v312h368v-256L344.001,10.34z"/>
	<path fill="#00EFD1" d="M112.001,344h312V88l-28-28L112.001,344z"/>
	<path fill="#FFFFFF" d="M368.001,56h-96l-160,160l96,96l160-160V56z"/>
	<path fill="#FFFFFF" d="M318.856,56L185.458,289.457L208.001,312l160-160V56H318.856z"/>
	<g>
		<path fill="#419BC2" d="M384.001,240h16v16h-16V240z"/>
		<path fill="#419BC2" d="M320.001,272h80v16h-80V272z"/>
		<path fill="#419BC2" d="M320.001,304h80v16h-80V304z"/>
		<path fill="#419BC2" d="M320.001,240h48v16h-48V240z"/>
	</g>
	<path fill="#00EFD1" d="M424.001,88h-48c-17.672,0-32-14.328-32-32V8L424.001,88z"/>
	<path fill="#00EFD1" d="M467.032,443.031L392.001,368l-24,24l75.031,75.031c6.629,6.629,17.375,6.629,24,0
		C473.661,460.406,473.661,449.66,467.032,443.031z"/>
	<path fill="#00EFD1" d="M424.001,312c0,66.273-53.727,120-120,120s-120-53.727-120-120s53.727-120,120-120
		S424.001,245.727,424.001,312z"/>
	<path fill="#FFFFFF" d="M392.001,312c0,48.602-39.398,88-88,88s-88-39.398-88-88s39.398-88,88-88S392.001,263.398,392.001,312z"/>
	<path fill="#FFFFFF" d="M376.001,312c0,39.766-32.234,72-72,72c-39.762,0-72-32.234-72-72s32.238-72,72-72
		C343.767,240,376.001,272.234,376.001,312z"/>
	<path fill="#00ACEA" d="M216.001,312c42.563-53.336,133.441-53.336,176,0C349.442,365.336,258.563,365.336,216.001,312z"/>
	<path fill="#FFFFFF" d="M344.001,312c0,22.09-17.906,40-40,40c-22.09,0-40-17.91-40-40s17.91-40,40-40
		C326.095,272,344.001,289.91,344.001,312z"/>
	<g>
		<path fill="#083863" d="M450.501,386.332v11.063c15.101-1.273,27-13.971,27-29.396V96c0-15.424-11.899-28.122-27-29.395v11.063
			c9.023,1.224,16,8.978,16,18.332v242.5h-39.868l0.578-2.977c11.554-59.443-20.908-118.812-77.188-141.165
			c-14.893-5.914-30.528-8.913-46.474-8.913c-43.47,0-83.295,21.925-106.534,58.649c-32.379,51.169-23.731,118.277,20.564,159.568
			c23.411,21.821,53.936,33.839,85.954,33.839c27.047,0,52.865-8.48,74.665-24.523l1.729-1.273l59.219,59.215
			c4.245,4.244,9.89,6.582,15.895,6.582c2.961,0,5.852-0.575,8.593-1.71c8.423-3.492,13.866-11.642,13.866-20.761
			c0.018-5.925-2.379-11.712-6.575-15.883l-57.269-57.27l-7.781,7.781l57.271,57.26c3.292,3.291,4.268,8.198,2.487,12.501
			c-1.784,4.301-5.942,7.079-10.593,7.079c-3.063-0.01-5.938-1.198-8.111-3.347l-58.516-58.509l1.868-1.766
			c4.236-4.005,8.245-8.367,11.916-12.966l1.744-2.186l0.314,0.314l6.257-10.001c5.257-8.402,9.505-17.429,12.625-26.829
			l0.568-1.712h42.793V368C466.501,377.354,459.524,385.108,450.501,386.332z M304.004,426.5
			c-63.139,0-114.503-51.364-114.503-114.5s51.364-114.5,114.5-114.5s114.5,51.364,114.5,114.5
			C418.434,375.069,367.07,426.433,304.004,426.5z"/>
		<path fill="#083863" d="M13.501,368v-18.5h144v-11h-144V96c0-9.354,6.977-17.108,16-18.332V66.605
			c-15.101,1.273-27,13.971-27,29.395v272c0,16.267,13.234,29.5,29.5,29.5h133.5v-11h-133.5C21.8,386.5,13.501,378.201,13.501,368z"
			/>
		<path fill="#083863" d="M338.501,13.5v37h-66.5c-1.447,0-2.864,0.587-3.889,1.611l-160,160c-2.141,2.144-2.141,5.633,0.001,7.778
			l46.231,46.231l7.777-7.777L119.778,216l154.5-154.5h64.559l0.413,1.992c2.471,11.918,10.604,21.946,21.753,26.827l1.498,0.655
			v58.749l-20.621,20.621l7.777,7.777l22.232-22.232c1.024-1.024,1.611-2.441,1.611-3.889V93.5h45v128h11V88.246
			c-0.039-0.162-0.08-0.373-0.091-0.619c-0.029-0.438-0.127-0.919-0.286-1.383l-0.078-0.24c-0.033-0.106-0.063-0.209-0.108-0.315
			c-0.26-0.579-0.632-1.122-1.095-1.593L347.858,4.111c-0.439-0.434-0.963-0.797-1.549-1.072c-0.163-0.064-0.329-0.122-0.499-0.171
			l-0.121-0.038c-0.384-0.131-0.79-0.219-1.209-0.261l-0.041,0.001c-0.266,0-0.492-0.037-0.648-0.07H80.001
			c-16.267,0-29.5,13.233-29.5,29.5v285.5h11V32c0-10.201,8.299-18.5,18.5-18.5H338.501z M349.501,21.277L410.724,82.5h-34.723
			c-14.612,0-26.5-11.888-26.5-26.5V21.277z"/>
		<rect x="82.501" y="34.5" fill="#083863" width="11" height="11"/>
		<rect x="114.501" y="34.5" fill="#083863" width="11" height="11"/>
		<rect x="146.501" y="34.5" fill="#083863" width="11" height="11"/>
		<rect x="82.501" y="82.5" fill="#083863" width="75" height="11"/>
		<rect x="82.501" y="114.5" fill="#083863" width="75" height="11"/>
		<rect x="82.501" y="146.5" fill="#083863" width="43" height="11"/>
		<rect x="82.501" y="274.5" fill="#083863" width="51" height="11"/>
		<rect x="82.501" y="306.5" fill="#083863" width="75" height="11"/>
	</g>
	<g>
		<polygon fill="#083863" points="302.811,448.816 292.272,451.975 296.616,466.5 183.395,466.5 199.752,411.979 189.212,408.81 
			171.912,466.5 154.501,466.5 154.501,477.5 325.501,477.5 325.501,466.5 308.101,466.5 		"/>
		<path fill="#083863" d="M328.001,109.5c7.444,0,13.5-6.056,13.5-13.5s-6.056-13.5-13.5-13.5s-13.5,6.056-13.5,13.5
			S320.557,109.5,328.001,109.5z"/>
		
			<rect x="157.531" y="214.501" transform="matrix(0.7072 0.7071 -0.7071 0.7072 205.9221 -57.1902)" fill="#083863" width="28.944" height="10.998"/>
		
			<rect x="181.53" y="190.503" transform="matrix(0.7071 0.7071 -0.7071 0.7071 196.0032 -81.1867)" fill="#083863" width="28.946" height="11.001"/>
		<path fill="#083863" d="M234.146,182.601l10.777-2.156l-6.92-34.657l19.833-19.847l33.489,6.737l6.797,33.947l10.777-2.153
			l-7.51-37.548c-0.437-2.184-2.128-3.876-4.309-4.312l-40-8c-0.358-0.072-0.721-0.108-1.081-0.108c-1.459,0-2.83,0.57-3.86,1.604
			l-24.004,24.003c-1.292,1.297-1.854,3.148-1.499,4.948L234.146,182.601z"/>
		<path fill="#083863" d="M304.001,218.5c-51.556,0-93.5,41.944-93.5,93.5s41.944,93.5,93.5,93.5s93.5-41.944,93.5-93.5
			S355.557,218.5,304.001,218.5z M224.8,289.021c5.028-17.284,15.292-32.138,29.684-42.953
			c14.392-10.817,31.514-16.545,49.515-16.567c18.007,0.022,35.129,5.75,49.521,16.567c14.391,10.815,24.655,25.669,29.684,42.953
			l2.146,7.374l-6.075-4.698c-20.331-15.722-44.658-24.346-70.353-24.939l-0.202-0.013c-3.105-0.324-6.277-0.324-9.383,0
			l-0.203,0.013c-25.706,0.582-50.051,9.206-70.402,24.939l-6.074,4.696L224.8,289.021z M343.158,288.951l-3.688-6.188l6.729,2.574
			c14.016,5.362,26.842,13.992,37.093,24.956l1.597,1.707l-1.597,1.707c-10.251,10.964-23.077,19.594-37.093,24.956l-6.729,2.574
			l3.688-6.188C351.628,320.832,351.628,303.168,343.158,288.951z M338.501,312c0,19.023-15.477,34.5-34.5,34.5
			s-34.5-15.477-34.5-34.5s15.477-34.5,34.5-34.5S338.501,292.977,338.501,312z M264.845,335.049l3.685,6.188l-6.727-2.573
			c-14.016-5.362-26.842-13.992-37.093-24.956L223.114,312l1.596-1.707c10.25-10.964,23.077-19.594,37.093-24.956l6.727-2.573
			l-3.685,6.188C256.378,303.168,256.378,320.832,264.845,335.049z M383.202,334.979c-5.028,17.284-15.293,32.138-29.684,42.953
			c-14.392,10.816-31.514,16.546-49.515,16.567c-18.007-0.021-35.129-5.751-49.521-16.567
			c-14.391-10.815-24.655-25.669-29.684-42.953l-2.145-7.374l6.075,4.698c20.331,15.722,44.658,24.346,70.353,24.939l0.202,0.013
			c3.105,0.324,6.281,0.324,9.387,0l0.203-0.013c25.708-0.582,50.051-9.206,70.398-24.939l6.075-4.697L383.202,334.979z"/>
	</g>
	<path fill="#083863" d="M316.13,312c0,6.698-5.431,12.129-12.129,12.129s-12.129-5.431-12.129-12.129s5.431-12.129,12.129-12.129
		S316.13,305.302,316.13,312z"/>
</g>
</svg>
