<?xml version="1.0" encoding="utf-8"?>
<!-- Generator: Adobe Illustrator 16.0.0, SVG Export Plug-In . SVG Version: 6.00 Build 0)  -->
<!DOCTYPE svg PUBLIC "-//W3C//DTD SVG 1.1//EN" "http://www.w3.org/Graphics/SVG/1.1/DTD/svg11.dtd">
<svg version="1.1" id="Layer_1" xmlns="http://www.w3.org/2000/svg" xmlns:xlink="http://www.w3.org/1999/xlink" x="0px" y="0px"
	 width="242px" height="227.707px" viewBox="219.504 4.5 242 227.707" enable-background="new 219.504 4.5 242 227.707"
	 xml:space="preserve">
<g>
	<path fill="#00EFD1" d="M458.285,38.988v103.16c0,17.117-13.875,30.992-30.992,30.992h-80.398l-64.422,55.609l-1.008-55.609
		h-26.973c-17.117,0.004-30.992-13.875-30.988-30.992V38.988C223.5,21.875,237.375,7.996,254.492,8h172.801
		C444.41,8,458.285,21.875,458.285,38.988z M367.465,104.012l24.25-23.641L358.203,75.5l-14.988-30.371L328.223,75.5l-33.508,4.871
		l24.25,23.641l-5.723,33.367l29.973-15.758l29.969,15.758L367.465,104.012z"/>
	<path fill="#00ACEA" d="M391.715,80.371l-24.25,23.641l5.719,33.367l-29.969-15.758l-29.973,15.758l5.723-33.367l-24.25-23.641
		l33.508-4.871l14.992-30.371L358.203,75.5L391.715,80.371z"/>
	<g>
		<path fill="#083863" d="M427.282,4.5h-172.79c-19.292,0-34.988,15.471-34.988,34.488v103.16c0,18.941,15.696,34.352,34.988,34.352
			h23.532l0.948,52.243c0.007,1.397,0.809,2.64,2.044,3.192c1.165,0.519,2.739,0.276,3.693-0.573l63.486-54.862h79.097
			c9.043,0,17.88-3.665,24.245-10.055c6.375-6.395,10.008-15.243,9.966-24.276V38.988c0.044-9.063-3.585-17.935-9.958-24.353
			C445.079,8.12,436.462,4.521,427.282,4.5z M454.504,142.148c0.061,7.178-2.817,14.232-7.896,19.337
			c-5.062,5.093-12.08,8.014-19.257,8.014h-80.457c-0.792,0.012-1.622,0.335-2.247,0.888l-58.804,50.803l-0.879-48.198
			c-0.032-1.915-1.613-3.478-3.524-3.488h-26.948c-15.433-0.005-27.988-12.276-27.988-27.355V38.988
			c0-14.9,12.817-27.488,27.988-27.488h172.801c7.228,0.023,14.274,2.979,19.339,8.108c5.068,5.128,7.938,12.207,7.872,19.421
			V142.148z"/>
		<path fill="#083863" d="M392.217,76.907l-31.689-4.606l-14.176-28.719c-0.594-1.205-1.796-1.953-3.137-1.953
			c-1.344,0-2.547,0.748-3.14,1.951l-14.177,28.721l-31.688,4.605c-1.311,0.19-2.42,1.125-2.828,2.382
			c-0.415,1.276-0.075,2.652,0.889,3.591l22.932,22.35l-5.407,31.554c-0.228,1.324,0.308,2.638,1.396,3.429
			c1.016,0.739,2.563,0.851,3.683,0.262l28.342-14.903l28.34,14.902c1.122,0.589,2.664,0.478,3.685-0.266
			c1.086-0.79,1.62-2.104,1.395-3.429l-5.411-31.55l22.934-22.351c0.959-0.938,1.299-2.313,0.884-3.59
			C394.633,78.031,393.525,77.096,392.217,76.907z M365.021,101.504c-0.826,0.803-1.202,1.959-1.008,3.094l4.526,26.383
			l-23.695-12.458c-0.973-0.512-2.289-0.511-3.26,0l-23.691,12.459l4.52-26.381c0.195-1.136-0.18-2.292-1.003-3.093l-19.178-18.691
			l26.497-3.85c1.138-0.166,2.124-0.883,2.636-1.919l11.851-24.009l11.852,24.011c0.511,1.035,1.495,1.751,2.636,1.917l26.491,3.85
			L365.021,101.504z"/>
	</g>
</g>
</svg>
